Coordinates
version=1
nRows=19
nColumns=24
inDegrees=yes

Units are S.I. units (second, meters, Newtons, ...)
Angles are in degrees.

endheader
time	pelvis_tilt	pelvis_list	pelvis_rotation	pelvis_tx	pelvis_ty	pelvis_tz	hip_flexion_r	hip_adduction_r	hip_rotation_r	knee_angle_r	ankle_angle_r	subtalar_angle_r	mtp_angle_r	hip_flexion_l	hip_adduction_l	hip_rotation_l	knee_angle_l	ankle_angle_l	subtalar_angle_l	mtp_angle_l	lumbar_extension	lumbar_bending	lumbar_rotation
      4.76000000	     -7.09055651	     -7.71807261	      5.24953800	     -0.78976505	     -0.01927750	      0.58311208	     16.96991110	      9.29970794	    -10.09248787	    -17.20298796	      1.52285780	     -6.30722259	      3.76215085	     27.37360843	    -13.00258188	     -4.41198289	    -67.40620118	     -9.85720737	     20.76038872	     19.70410436	      5.04938874	     10.15957985	      0.58413830
      4.76500000	     -7.05261911	     -7.50115503	      4.83807714	     -0.78407330	     -0.01830293	      0.58369467	     16.22529987	      9.29964846	     -9.60012827	    -16.71012549	      1.63125529	     -6.19839516	      3.73853121	     27.97704718	    -12.80377658	     -4.79756893	    -67.00726777	     -9.54062478	     21.03527337	     19.79885277	      4.91088945	     10.00371271	      1.19345398
      4.77000000	     -7.02000692	     -7.30355943	      4.45421841	     -0.77837100	     -0.01741793	      0.58424701	     15.48721729	      9.30033828	     -9.11991297	    -16.21399079	      1.77628636	     -6.08210608	      3.71321515	     28.58521039	    -12.61903604	     -5.16267009	    -66.55703151	     -9.22188158	     21.27481013	     19.82203874	      4.79308994	      9.86198594	      1.72903132
      4.77500000	     -6.99737661	     -7.11149233	      4.06958639	     -0.77267168	     -0.01659641	      0.58479597	     14.76572195	      9.29132634	     -8.65718761	    -15.72546353	      1.92524610	     -5.93775141	      3.69143978	     29.18554526	    -12.44304783	     -5.52944325	    -66.04244709	     -8.90114575	     21.48468032	     19.77562200	      4.69030589	      9.72415039	      2.24511435
      4.78000000	     -6.97225772	     -6.91680536	      3.67914703	     -0.76699523	     -0.01582095	      0.58534324	     14.04801062	      9.26929955	     -8.18811640	    -15.24558284	      2.07334028	     -5.79612348	      3.65869032	     29.76009221	    -12.26756104	     -5.90601952	    -65.46259149	     -8.57734907	     21.62289673	     19.63330272	      4.58246065	      9.58391915	      2.76836637
      4.78500000	     -6.95366717	     -6.72881063	      3.29045078	     -0.76132477	     -0.01510931	      0.58589272	     13.34287101	      9.24125610	     -7.73217102	    -14.77150902	      2.22436429	     -5.64174175	      3.62273595	     30.32228132	    -12.10201935	     -6.28062629	    -64.82102724	     -8.25076502	     21.71943669	     19.40766596	      4.48528438	      9.44554867	      3.27461928
      4.79000000	     -6.94167928	     -6.54565266	      2.90293719	     -0.75566432	     -0.01445806	      0.58642985	     12.65072295	      9.20452303	     -7.29050379	    -14.30332316	      2.37670701	     -5.47459559	      3.58616395	     30.87063627	    -11.94319990	     -6.65523412	    -64.11741340	     -7.92398936	     21.76233211	     19.09944934	      4.39793112	      9.31203316	      3.76890754
      4.79500000	     -6.93378783	     -6.36987455	      2.52154859	     -0.75001547	     -0.01387233	      0.58696837	     11.96950261	      9.16334510	     -6.86431388	    -13.84170561	      2.53071686	     -5.29808733	      3.54948822	     31.40353983	    -11.79241039	     -7.02268883	    -63.35400854	     -7.59442069	     21.75426979	     18.70489677	      4.31776911	      9.18049252	      4.25223814
      4.80000000	     -6.93227556	     -6.20010892	      2.14374388	     -0.74436655	     -0.01335079	      0.58749918	     11.30024205	      9.11576853	     -6.45658012	    -13.38538133	      2.68835499	     -5.10882115	      3.51909348	     31.92018509	    -11.65012459	     -7.38771294	    -62.52927284	     -7.26647676	     21.70214710	     18.23625346	      4.24754813	      9.05371439	      4.72195379
      4.80500000	     -6.93723823	     -6.04140931	      1.77489800	     -0.73872725	     -0.01289715	      0.58800973	     10.64440484	      9.06642501	     -6.07025838	    -12.93372387	      2.84782476	     -4.90706554	      3.50062983	     32.42281294	    -11.51448021	     -7.73667607	    -61.64219761	     -6.94327728	     21.60542046	     17.71661644	      4.18926657	      8.93634485	      5.16827748
      4.81000000	     -6.94263081	     -5.88979526	      1.41597266	     -0.73308271	     -0.01250768	      0.58851024	      9.99323733	      9.01288057	     -5.71046525	    -12.48606181	      3.01245715	     -4.70170887	      3.49384494	     32.90124678	    -11.38668621	     -8.07931511	    -60.69449943	     -6.62228152	     21.48202059	     17.13014265	      4.13564940	      8.82221828	      5.60986472
      4.81500000	     -6.95693070	     -5.74572489	      1.06983778	     -0.72745307	     -0.01219281	      0.58898443	      9.35626674	      8.95424867	     -5.37308136	    -12.03788333	      3.17500572	     -4.48630614	      3.50680222	     33.36804492	    -11.26272807	     -8.41399794	    -59.68627165	     -6.31320147	     21.32007241	     16.52992778	      4.09105933	      8.71413888	      6.02314878
      4.82000000	     -6.91337365	     -5.64872667	      0.75022217	     -0.72178078	     -0.01191792	      0.58946010	      8.64789533	      8.93777335	     -5.06376897	    -11.57204151	      3.34284897	     -4.25514085	      3.53568812	     33.75670973	    -11.18315831	     -8.69098277	    -58.66030220	     -5.87671156	     21.33325872	     15.49682682	      3.99674976	      8.64320103	      6.41157263
      4.82500000	     -6.98996082	     -5.51699118	      0.44267931	     -0.71616615	     -0.01178329	      0.58986024	      8.09829402	      8.86531966	     -4.79623639	    -11.14790429	      3.49789163	     -4.05930069	      3.58306471	     34.24522209	    -11.04089710	     -8.98320879	    -57.50530243	     -5.67282086	     21.01387618	     15.07006363	      4.03103528	      8.53894694	      6.77432356
      4.83000000	     -6.95442451	     -5.40222335	      0.11403421	     -0.71054135	     -0.01161730	      0.59032254	      7.41820622	      8.81064587	     -4.50611285	    -10.70776139	      3.68254151	     -3.79641367	      3.68690279	     34.56909112	    -10.94737215	     -9.27947405	    -56.31009525	     -5.35607295	     20.92888958	     14.33720781	      3.93672611	      8.44948224	      7.20674769
      4.83500000	     -7.01431488	     -5.28852576	     -0.16532566	     -0.70487963	     -0.01159833	      0.59068587	      6.84953717	      8.74022473	     -4.26577411	    -10.27923498	      3.83911688	     -3.59800027	      3.75851708	     34.97707664	    -10.81816149	     -9.55735804	    -55.03092588	     -5.14703594	     20.66662810	     13.84216910	      3.96715675	      8.35648866	      7.49209982
      4.84000000	     -6.95051487	     -5.21822587	     -0.45060438	     -0.69921844	     -0.01156507	      0.59107401	      6.13730925	      8.71006964	     -4.03717867	     -9.82972242	      4.02282236	     -3.31853502	      3.91922977	     35.22617030	    -10.75230746	     -9.81564937	    -53.74097657	     -4.79769242	     20.65177007	     12.97866114	      3.85506735	      8.31009306	      7.83340273
      4.84500000	     -7.03213604	     -5.11867022	     -0.69629029	     -0.69357217	     -0.01170334	      0.59139108	      5.60488124	      8.63911978	     -3.83141839	     -9.41677665	      4.18561543	     -3.13810802	      3.98966279	     35.60676712	    -10.60956655	    -10.02709445	    -52.33397700	     -4.64750434	     20.47240073	     12.56098905	      3.91377462	      8.22693437	      8.10188801
      4.85000000	     -7.04046172	     -5.03404727	     -0.94455438	     -0.68789457	     -0.01187795	      0.59172800	      4.97922067	      8.57873266	     -3.60063671	     -8.98294929	      4.40621130	     -2.90418941	      4.08889745	     35.87489648	    -10.49992645	    -10.25286983	    -50.88982863	     -4.45020281	     20.43222643	     12.10044920	      3.89386483	      8.15626214	      8.39417994
